<svg width="16" height="16" viewBox="0 0 16 16" fill="none" xmlns="http://www.w3.org/2000/svg">
<path fill-rule="evenodd" clip-rule="evenodd" d="M8.486 0.800001L10.7167 5.21933L15.01 5.64467C15.2187 5.66201 15.3983 5.79917 15.4699 5.99597C15.5415 6.19277 15.4921 6.41325 15.3433 6.56067L11.81 10.0627L13.12 14.8213C13.1748 15.0275 13.1035 15.2466 12.9379 15.3811C12.7723 15.5156 12.5433 15.5405 12.3527 15.4447L8 13.2893L3.65334 15.442C3.46275 15.5378 3.23368 15.513 3.06811 15.3785C2.90254 15.244 2.83126 15.0248 2.886 14.8187L4.196 10.06L0.660004 6.558C0.511258 6.41058 0.461853 6.1901 0.533468 5.9933C0.605083 5.79651 0.784634 5.65934 0.993337 5.642L5.28667 5.21667L7.514 0.800001C7.6074 0.617591 7.79507 0.502838 8 0.502838C8.20493 0.502838 8.39261 0.617591 8.486 0.800001Z" fill="#E9DBCB"/>
</svg>
